<svg width="251" height="258" viewBox="0 0 251 258" fill="none" xmlns="http://www.w3.org/2000/svg">
<g clip-path="url(#clip0_25_1244)">
<rect x="0.708862" y="0.125122" width="249.375" height="257.812" fill="#1C5CFF"/>
<circle cx="130.552" cy="196.321" r="103.532" fill="#3D74FF"/>
<path d="M200.908 174.013C200.908 192.824 193.435 210.865 180.133 224.166C166.832 237.468 148.791 244.941 129.98 244.941C111.168 244.941 93.1277 237.468 79.8261 224.166C66.5246 210.865 59.0519 192.824 59.0518 174.013H89.385C89.385 184.779 93.662 195.105 101.275 202.718C108.888 210.331 119.213 214.607 129.98 214.607C140.746 214.607 151.072 210.331 158.684 202.718C166.297 195.105 170.574 184.779 170.574 174.013H200.908Z" fill="#779DFF"/>
</g>
<rect x="1.17761" y="0.593872" width="248.438" height="256.875" stroke="#C9C9C9" stroke-width="0.9375"/>
<defs>
<clipPath id="clip0_25_1244">
<rect x="0.708862" y="0.125122" width="249.375" height="257.812" fill="white"/>
</clipPath>
</defs>
</svg>
