<svg width="601" height="80" viewBox="0 0 601 80" fill="none" xmlns="http://www.w3.org/2000/svg">
<path d="M12.1591 6.32223V4.5511H22.7127V6.32223H18.458V18.1875H16.4072V6.32223H12.1591ZM23.823 18.1875V7.96019H25.7472V9.58484H25.8538C26.0402 9.03441 26.3687 8.60162 26.8392 8.28645C27.3142 7.96685 27.8513 7.80705 28.4505 7.80705C28.5748 7.80705 28.7213 7.81149 28.89 7.82037C29.0631 7.82925 29.1985 7.84034 29.2961 7.85366V9.75796C29.2162 9.73576 29.0742 9.71135 28.87 9.68472C28.6658 9.65364 28.4616 9.63811 28.2574 9.63811C27.7869 9.63811 27.3674 9.73798 26.999 9.93773C26.635 10.133 26.3465 10.406 26.1334 10.7567C25.9203 11.103 25.8138 11.498 25.8138 11.9419V18.1875H23.823ZM35.0606 18.3939C34.053 18.3939 33.1852 18.1786 32.4572 17.748C31.7337 17.313 31.1744 16.7027 30.7793 15.917C30.3887 15.1268 30.1934 14.2013 30.1934 13.1404C30.1934 12.0928 30.3887 11.1695 30.7793 10.3705C31.1744 9.57152 31.7248 8.94785 32.4306 8.49952C33.1408 8.05119 33.9709 7.82703 34.9208 7.82703C35.4979 7.82703 36.0572 7.92246 36.5987 8.11334C37.1403 8.30421 37.6263 8.60384 38.0569 9.01222C38.4875 9.4206 38.8271 9.95105 39.0756 10.6036C39.3242 11.2517 39.4485 12.0396 39.4485 12.9673V13.6731H31.3186V12.1816H37.4976C37.4976 11.6578 37.3911 11.1939 37.178 10.79C36.9649 10.3816 36.6653 10.0598 36.2791 9.82454C35.8974 9.58928 35.449 9.47165 34.9341 9.47165C34.3748 9.47165 33.8865 9.60925 33.4693 9.88447C33.0565 10.1552 32.7369 10.5104 32.5105 10.9498C32.2885 11.3848 32.1776 11.8576 32.1776 12.368V13.5333C32.1776 14.2169 32.2974 14.7984 32.5371 15.2778C32.7813 15.7572 33.1208 16.1234 33.5558 16.3764C33.9909 16.625 34.4991 16.7493 35.0806 16.7493C35.4579 16.7493 35.8019 16.696 36.1127 16.5895C36.4234 16.4785 36.6919 16.3142 36.9183 16.0967C37.1447 15.8792 37.3178 15.6107 37.4377 15.2911L39.322 15.6307C39.1711 16.1855 38.9003 16.6716 38.5097 17.0888C38.1235 17.5017 37.6374 17.8235 37.0515 18.0543C36.47 18.2807 35.8064 18.3939 35.0606 18.3939ZM43.6483 12.115V18.1875H41.6574V7.96019H43.5684V9.62479H43.6949C43.9302 9.08324 44.2986 8.64823 44.8002 8.31975C45.3062 7.99127 45.9432 7.82703 46.7111 7.82703C47.4081 7.82703 48.0184 7.97351 48.5422 8.26648C49.066 8.55501 49.4722 8.98559 49.7607 9.55821C50.0492 10.1308 50.1935 10.8388 50.1935 11.6822V18.1875H48.2026V11.9219C48.2026 11.1806 48.0095 10.6014 47.6233 10.1841C47.2372 9.7624 46.7067 9.55155 46.032 9.55155C45.5703 9.55155 45.1597 9.65142 44.8002 9.85118C44.4451 10.0509 44.1632 10.3439 43.9546 10.7301C43.7504 11.1118 43.6483 11.5735 43.6483 12.115ZM56.6921 18.3872C55.8664 18.3872 55.1296 18.1764 54.4815 17.7547C53.8378 17.3285 53.3318 16.7226 52.9634 15.9369C52.5994 15.1468 52.4174 14.1991 52.4174 13.0938C52.4174 11.9885 52.6016 11.043 52.97 10.2573C53.3429 9.47165 53.8534 8.87017 54.5015 8.45292C55.1495 8.03566 55.8842 7.82703 56.7054 7.82703C57.3401 7.82703 57.8506 7.93356 58.2368 8.14663C58.6274 8.35526 58.9293 8.5994 59.1423 8.87905C59.3599 9.1587 59.5285 9.40506 59.6484 9.61813H59.7682V4.5511H61.7591V18.1875H59.8148V16.5961H59.6484C59.5285 16.8136 59.3554 17.0622 59.129 17.3419C58.9071 17.6215 58.6008 17.8656 58.2102 18.0743C57.8195 18.2829 57.3135 18.3872 56.6921 18.3872ZM57.1315 16.6893C57.7041 16.6893 58.188 16.5384 58.583 16.2366C58.9825 15.9303 59.2844 15.5064 59.4886 14.9648C59.6972 14.4233 59.8015 13.7929 59.8015 13.0738C59.8015 12.3636 59.6994 11.7422 59.4952 11.2095C59.291 10.6768 58.9914 10.2618 58.5964 9.96437C58.2013 9.66696 57.713 9.51826 57.1315 9.51826C56.5323 9.51826 56.0329 9.67362 55.6334 9.98434C55.2339 10.2951 54.932 10.719 54.7278 11.2561C54.5281 11.7932 54.4282 12.3991 54.4282 13.0738C54.4282 13.7574 54.5303 14.3722 54.7345 14.9182C54.9387 15.4642 55.2405 15.897 55.64 16.2166C56.044 16.5318 56.5411 16.6893 57.1315 16.6893ZM64.6006 18.1875V7.96019H66.5914V18.1875H64.6006ZM65.606 6.38216C65.2597 6.38216 64.9623 6.26675 64.7137 6.03592C64.4696 5.80066 64.3475 5.52101 64.3475 5.19697C64.3475 4.86849 64.4696 4.58883 64.7137 4.35801C64.9623 4.12275 65.2597 4.00512 65.606 4.00512C65.9522 4.00512 66.2474 4.12275 66.4915 4.35801C66.7401 4.58883 66.8644 4.86849 66.8644 5.19697C66.8644 5.52101 66.7401 5.80066 66.4915 6.03592C66.2474 6.26675 65.9522 6.38216 65.606 6.38216ZM71.2606 12.115V18.1875H69.2697V7.96019H71.1807V9.62479H71.3072C71.5425 9.08324 71.9109 8.64823 72.4125 8.31975C72.9185 7.99127 73.5555 7.82703 74.3235 7.82703C75.0204 7.82703 75.6307 7.97351 76.1545 8.26648C76.6783 8.55501 77.0845 8.98559 77.373 9.55821C77.6615 10.1308 77.8058 10.8388 77.8058 11.6822V18.1875H75.8149V11.9219C75.8149 11.1806 75.6218 10.6014 75.2357 10.1841C74.8495 9.7624 74.319 9.55155 73.6443 9.55155C73.1827 9.55155 72.7721 9.65142 72.4125 9.85118C72.0574 10.0509 71.7755 10.3439 71.5669 10.7301C71.3627 11.1118 71.2606 11.5735 71.2606 12.115ZM84.7638 22.2358C83.9515 22.2358 83.2523 22.1292 82.6664 21.9162C82.0849 21.7031 81.6099 21.4212 81.2415 21.0705C80.8731 20.7199 80.5979 20.3359 80.4159 19.9186L82.1271 19.2129C82.2469 19.4082 82.4067 19.6146 82.6065 19.8321C82.8107 20.054 83.0859 20.2427 83.4321 20.3981C83.7828 20.5534 84.2333 20.6311 84.7838 20.6311C85.5384 20.6311 86.1621 20.4469 86.6548 20.0784C87.1475 19.7145 87.3939 19.133 87.3939 18.334V16.3231H87.2674C87.1475 16.5406 86.9744 16.7826 86.748 17.0489C86.5261 17.3152 86.2198 17.546 85.8291 17.7414C85.4385 17.9367 84.9303 18.0343 84.3044 18.0343C83.4965 18.0343 82.7685 17.8457 82.1204 17.4684C81.4768 17.0866 80.9663 16.5251 80.589 15.7838C80.2161 15.0381 80.0297 14.1214 80.0297 13.0339C80.0297 11.9463 80.2139 11.0142 80.5823 10.2374C80.9552 9.46055 81.4657 8.86573 82.1138 8.45292C82.7618 8.03566 83.4965 7.82703 84.3177 7.82703C84.9525 7.82703 85.4651 7.93356 85.8558 8.14663C86.2464 8.35526 86.5505 8.5994 86.768 8.87905C86.9899 9.1587 87.1608 9.40506 87.2807 9.61813H87.4272V7.96019H89.3781V18.4139C89.3781 19.2928 89.1739 20.0141 88.7655 20.5778C88.3571 21.1416 87.8045 21.5588 87.1075 21.8296C86.4151 22.1004 85.6338 22.2358 84.7638 22.2358ZM84.7438 16.383C85.3164 16.383 85.8003 16.2499 86.1954 15.9835C86.5949 15.7128 86.8967 15.3266 87.1009 14.825C87.3095 14.3189 87.4138 13.713 87.4138 13.0072C87.4138 12.3192 87.3117 11.7133 87.1075 11.1895C86.9034 10.6657 86.6037 10.2573 86.2087 9.96437C85.8136 9.66696 85.3253 9.51826 84.7438 9.51826C84.1446 9.51826 83.6452 9.67362 83.2457 9.98434C82.8462 10.2906 82.5443 10.7079 82.3401 11.2361C82.1404 11.7644 82.0405 12.3547 82.0405 13.0072C82.0405 13.6775 82.1426 14.2657 82.3468 14.7717C82.551 15.2778 82.8528 15.6728 83.2523 15.9569C83.6563 16.241 84.1534 16.383 84.7438 16.383ZM96.4975 6.32223V4.5511H107.051V6.32223H102.796V18.1875H100.746V6.32223H96.4975ZM112.048 18.3939C111.089 18.3939 110.253 18.1742 109.538 17.7347C108.823 17.2952 108.268 16.6805 107.873 15.8903C107.478 15.1002 107.281 14.1769 107.281 13.1204C107.281 12.0595 107.478 11.1318 107.873 10.3372C108.268 9.54267 108.823 8.92566 109.538 8.48621C110.253 8.04675 111.089 7.82703 112.048 7.82703C113.007 7.82703 113.844 8.04675 114.558 8.48621C115.273 8.92566 115.828 9.54267 116.223 10.3372C116.618 11.1318 116.816 12.0595 116.816 13.1204C116.816 14.1769 116.618 15.1002 116.223 15.8903C115.828 16.6805 115.273 17.2952 114.558 17.7347C113.844 18.1742 113.007 18.3939 112.048 18.3939ZM112.055 16.7226C112.676 16.7226 113.191 16.5584 113.6 16.2299C114.008 15.9014 114.31 15.4642 114.505 14.9182C114.705 14.3722 114.805 13.7707 114.805 13.1138C114.805 12.4613 114.705 11.862 114.505 11.316C114.31 10.7656 114.008 10.3239 113.6 9.991C113.191 9.65808 112.676 9.49162 112.055 9.49162C111.429 9.49162 110.91 9.65808 110.497 9.991C110.088 10.3239 109.784 10.7656 109.585 11.316C109.389 11.862 109.292 12.4613 109.292 13.1138C109.292 13.7707 109.389 14.3722 109.585 14.9182C109.784 15.4642 110.088 15.9014 110.497 16.2299C110.91 16.5584 111.429 16.7226 112.055 16.7226ZM119.038 22.0227V7.96019H120.982V9.61813H121.149C121.264 9.40506 121.43 9.1587 121.648 8.87905C121.865 8.5994 122.167 8.35526 122.553 8.14663C122.94 7.93356 123.45 7.82703 124.085 7.82703C124.911 7.82703 125.647 8.03566 126.295 8.45292C126.944 8.87017 127.452 9.47165 127.82 10.2573C128.193 11.043 128.38 11.9885 128.38 13.0938C128.38 14.1991 128.195 15.1468 127.827 15.9369C127.458 16.7226 126.952 17.3285 126.309 17.7547C125.665 18.1764 124.93 18.3872 124.105 18.3872C123.483 18.3872 122.975 18.2829 122.58 18.0743C122.189 17.8656 121.883 17.6215 121.661 17.3419C121.439 17.0622 121.268 16.8136 121.149 16.5961H121.029V22.0227H119.038ZM120.989 13.0738C120.989 13.7929 121.093 14.4233 121.302 14.9648C121.51 15.5064 121.812 15.9303 122.207 16.2366C122.602 16.5384 123.086 16.6893 123.659 16.6893C124.254 16.6893 124.751 16.5318 125.15 16.2166C125.55 15.897 125.852 15.4642 126.056 14.9182C126.264 14.3722 126.369 13.7574 126.369 13.0738C126.369 12.3991 126.267 11.7932 126.062 11.2561C125.863 10.719 125.561 10.2951 125.157 9.98434C124.757 9.67362 124.258 9.51826 123.659 9.51826C123.082 9.51826 122.593 9.66696 122.194 9.96437C121.799 10.2618 121.499 10.6768 121.295 11.2095C121.091 11.7422 120.989 12.3636 120.989 13.0738ZM130.61 18.1875V7.96019H132.601V18.1875H130.61ZM131.616 6.38216C131.269 6.38216 130.972 6.26675 130.723 6.03592C130.479 5.80066 130.357 5.52101 130.357 5.19697C130.357 4.86849 130.479 4.58883 130.723 4.35801C130.972 4.12275 131.269 4.00512 131.616 4.00512C131.962 4.00512 132.257 4.12275 132.501 4.35801C132.75 4.58883 132.874 4.86849 132.874 5.19697C132.874 5.52101 132.75 5.80066 132.501 6.03592C132.257 6.26675 131.962 6.38216 131.616 6.38216ZM139.587 18.3939C138.597 18.3939 137.745 18.1697 137.03 17.7214C136.32 17.2686 135.774 16.6449 135.392 15.8504C135.011 15.0558 134.82 14.1458 134.82 13.1204C134.82 12.0817 135.015 11.1651 135.406 10.3705C135.796 9.57152 136.347 8.94785 137.057 8.49952C137.767 8.05119 138.604 7.82703 139.567 7.82703C140.344 7.82703 141.037 7.97129 141.645 8.25982C142.253 8.54391 142.743 8.94342 143.116 9.45833C143.493 9.97325 143.718 10.5747 143.789 11.2628H141.851C141.745 10.7833 141.5 10.3705 141.119 10.0243C140.741 9.67806 140.235 9.50494 139.601 9.50494C139.046 9.50494 138.56 9.65142 138.142 9.94439C137.73 10.2329 137.408 10.6457 137.177 11.1829C136.946 11.7155 136.831 12.3458 136.831 13.0738C136.831 13.8196 136.944 14.4632 137.17 15.0048C137.397 15.5463 137.716 15.9658 138.129 16.2632C138.546 16.5606 139.037 16.7093 139.601 16.7093C139.978 16.7093 140.32 16.6405 140.626 16.5029C140.937 16.3609 141.196 16.1589 141.405 15.897C141.618 15.6351 141.767 15.3199 141.851 14.9515H143.789C143.718 15.6129 143.502 16.2033 143.143 16.7226C142.783 17.242 142.302 17.6504 141.698 17.9478C141.099 18.2452 140.395 18.3939 139.587 18.3939ZM153.582 10.4571L151.777 10.7767C151.702 10.5459 151.582 10.3261 151.418 10.1175C151.258 9.90888 151.04 9.73798 150.765 9.60481C150.49 9.47165 150.146 9.40506 149.733 9.40506C149.169 9.40506 148.699 9.53157 148.321 9.78459C147.944 10.0332 147.755 10.355 147.755 10.7501C147.755 11.0919 147.882 11.3671 148.135 11.5757C148.388 11.7843 148.796 11.9552 149.36 12.0884L150.985 12.4613C151.926 12.6788 152.627 13.0139 153.089 13.4667C153.55 13.9194 153.781 14.5076 153.781 15.2311C153.781 15.8437 153.604 16.3897 153.249 16.8691C152.898 17.3441 152.407 17.7169 151.777 17.9877C151.151 18.2585 150.425 18.3939 149.6 18.3939C148.455 18.3939 147.52 18.1497 146.797 17.6615C146.073 17.1687 145.629 16.4696 145.465 15.5641L147.389 15.2711C147.509 15.7727 147.755 16.1522 148.128 16.4097C148.501 16.6627 148.987 16.7892 149.586 16.7892C150.239 16.7892 150.761 16.6538 151.151 16.383C151.542 16.1078 151.737 15.7727 151.737 15.3776C151.737 15.058 151.617 14.7895 151.378 14.572C151.142 14.3545 150.781 14.1902 150.292 14.0792L148.561 13.6997C147.607 13.4822 146.901 13.136 146.444 12.661C145.991 12.186 145.765 11.5846 145.765 10.8566C145.765 10.2529 145.933 9.72467 146.271 9.2719C146.608 8.81913 147.074 8.46623 147.669 8.21321C148.264 7.95576 148.945 7.82703 149.713 7.82703C150.818 7.82703 151.688 8.06673 152.323 8.54613C152.958 9.0211 153.377 9.65808 153.582 10.4571Z" fill="#1C5CFF"/>
<rect x="0.552002" y="48.4689" width="146.938" height="30.1875" rx="15.0938" fill="white"/>
<rect x="0.552002" y="48.4689" width="146.938" height="30.1875" rx="15.0938" stroke="#C9C9C9" stroke-width="0.9375"/>
<path d="M20.751 68.5627H17.2194V57.6536H20.8628C21.9317 57.6536 22.8497 57.872 23.6167 58.3087C24.3838 58.742 24.9715 59.3652 25.3799 60.1784C25.7918 60.9881 25.9978 61.9593 25.9978 63.0921C25.9978 64.2285 25.79 65.2051 25.3746 66.0218C24.9626 66.8386 24.366 67.4671 23.5848 67.9075C22.8035 68.3443 21.8589 68.5627 20.751 68.5627ZM18.8653 67.1244H20.6604C21.4914 67.1244 22.1821 66.9682 22.7325 66.6557C23.2829 66.3396 23.6949 65.8833 23.9683 65.2867C24.2417 64.6866 24.3785 63.9551 24.3785 63.0921C24.3785 62.2363 24.2417 61.5101 23.9683 60.9135C23.6984 60.3169 23.2954 59.8641 22.7591 59.5552C22.2229 59.2462 21.5571 59.0918 20.7616 59.0918H18.8653V67.1244ZM31.443 68.7278C30.6369 68.7278 29.9426 68.5556 29.3603 68.2111C28.7814 67.8631 28.334 67.3748 28.0179 66.7462C27.7054 66.1141 27.5492 65.3737 27.5492 64.525C27.5492 63.6869 27.7054 62.9483 28.0179 62.3091C28.334 61.6699 28.7743 61.171 29.339 60.8123C29.9071 60.4536 30.5712 60.2743 31.3311 60.2743C31.7928 60.2743 32.2402 60.3506 32.6735 60.5033C33.1067 60.656 33.4956 60.8957 33.84 61.2225C34.1845 61.5492 34.4561 61.9735 34.655 62.4955C34.8539 63.014 34.9533 63.6443 34.9533 64.3865V64.9511H28.4494V63.758H33.3926C33.3926 63.3389 33.3073 62.9678 33.1369 62.6447C32.9664 62.318 32.7267 62.0605 32.4178 61.8723C32.1124 61.6841 31.7537 61.59 31.3418 61.59C30.8944 61.59 30.5037 61.7001 30.1699 61.9203C29.8397 62.1369 29.584 62.421 29.4029 62.7725C29.2253 63.1205 29.1365 63.4987 29.1365 63.9071V64.8393C29.1365 65.3862 29.2324 65.8514 29.4242 66.2349C29.6195 66.6184 29.8912 66.9114 30.2392 67.1138C30.5872 67.3127 30.9938 67.4121 31.459 67.4121C31.7608 67.4121 32.036 67.3695 32.2846 67.2842C32.5332 67.1955 32.748 67.0641 32.9292 66.8901C33.1103 66.7161 33.2488 66.5012 33.3446 66.2455L34.8521 66.5172C34.7314 66.9611 34.5147 67.3499 34.2022 67.6837C33.8933 68.014 33.5044 68.2715 33.0357 68.4561C32.5705 68.6372 32.0396 68.7278 31.443 68.7278ZM42.8515 62.3783L41.4079 62.634C41.3476 62.4494 41.2517 62.2736 41.1203 62.1067C40.9925 61.9398 40.8184 61.8031 40.5983 61.6965C40.3781 61.59 40.1029 61.5367 39.7726 61.5367C39.3216 61.5367 38.9452 61.6379 38.6434 61.8404C38.3415 62.0392 38.1906 62.2967 38.1906 62.6127C38.1906 62.8862 38.2918 63.1063 38.4942 63.2732C38.6966 63.4401 39.0233 63.5769 39.4743 63.6834L40.7741 63.9817C41.5269 64.1557 42.088 64.4238 42.4573 64.786C42.8266 65.1482 43.0113 65.6188 43.0113 66.1976C43.0113 66.6877 42.8692 67.1244 42.5851 67.508C42.3046 67.8879 41.9122 68.1862 41.4079 68.4029C40.9072 68.6195 40.3266 68.7278 39.6661 68.7278C38.7499 68.7278 38.0024 68.5325 37.4236 68.1418C36.8447 67.7477 36.4896 67.1884 36.3582 66.4639L37.8976 66.2296C37.9935 66.6308 38.1906 66.9345 38.4889 67.1404C38.7872 67.3428 39.176 67.444 39.6554 67.444C40.1775 67.444 40.5947 67.3357 40.9072 67.1191C41.2197 66.8989 41.376 66.6308 41.376 66.3148C41.376 66.0591 41.2801 65.8443 41.0883 65.6703C40.9001 65.4962 40.6107 65.3649 40.2201 65.2761L38.8351 64.9725C38.0716 64.7984 37.507 64.5215 37.1412 64.1415C36.779 63.7615 36.5979 63.2803 36.5979 62.6979C36.5979 62.215 36.7329 61.7924 37.0028 61.4302C37.2726 61.068 37.6455 60.7857 38.1214 60.5832C38.5972 60.3773 39.1423 60.2743 39.7567 60.2743C40.6409 60.2743 41.3369 60.4661 41.8447 60.8496C42.3525 61.2296 42.6881 61.7391 42.8515 62.3783ZM44.7624 68.5627V60.3808H46.3551V68.5627H44.7624ZM45.5668 59.1184C45.2898 59.1184 45.0518 59.0261 44.853 58.8414C44.6577 58.6532 44.56 58.4295 44.56 58.1703C44.56 57.9075 44.6577 57.6837 44.853 57.4991C45.0518 57.3109 45.2898 57.2168 45.5668 57.2168C45.8438 57.2168 46.0799 57.3109 46.2752 57.4991C46.4741 57.6837 46.5735 57.9075 46.5735 58.1703C46.5735 58.4295 46.4741 58.6532 46.2752 58.8414C46.0799 59.0261 45.8438 59.1184 45.5668 59.1184ZM51.9282 71.8013C51.2783 71.8013 50.719 71.7161 50.2503 71.5456C49.7851 71.3752 49.4051 71.1497 49.1104 70.8691C48.8156 70.5886 48.5954 70.2814 48.4498 69.9476L49.8188 69.383C49.9147 69.5392 50.0425 69.7043 50.2023 69.8783C50.3657 70.0559 50.5858 70.2068 50.8628 70.3311C51.1434 70.4554 51.5038 70.5176 51.9442 70.5176C52.5479 70.5176 53.0468 70.3702 53.441 70.0754C53.8351 69.7842 54.0322 69.319 54.0322 68.6798V67.0712H53.931C53.8351 67.2452 53.6966 67.4387 53.5155 67.6518C53.338 67.8649 53.093 68.0495 52.7805 68.2058C52.468 68.362 52.0613 68.4401 51.5606 68.4401C50.9143 68.4401 50.3319 68.2892 49.8135 67.9874C49.2986 67.682 48.8902 67.2328 48.5883 66.6397C48.29 66.0431 48.1409 65.3098 48.1409 64.4398C48.1409 63.5698 48.2883 62.824 48.583 62.2026C48.8813 61.5811 49.2897 61.1053 49.8081 60.775C50.3266 60.4412 50.9143 60.2743 51.5713 60.2743C52.0791 60.2743 52.4893 60.3595 52.8018 60.53C53.1143 60.6969 53.3575 60.8922 53.5315 61.1159C53.7091 61.3396 53.8458 61.5367 53.9417 61.7072H54.0589V60.3808H55.6196V68.7438C55.6196 69.4469 55.4562 70.0239 55.1295 70.4749C54.8028 70.9259 54.3607 71.2597 53.8032 71.4764C53.2492 71.693 52.6242 71.8013 51.9282 71.8013ZM51.9122 67.1191C52.3703 67.1191 52.7574 67.0126 53.0734 66.7995C53.393 66.5829 53.6345 66.2739 53.7979 65.8727C53.9648 65.4678 54.0482 64.9831 54.0482 64.4185C54.0482 63.868 53.9665 63.3833 53.8032 62.9643C53.6398 62.5453 53.4001 62.2185 53.0841 61.9842C52.768 61.7462 52.3774 61.6273 51.9122 61.6273C51.4328 61.6273 51.0333 61.7516 50.7137 62.0002C50.3941 62.2452 50.1526 62.579 49.9893 63.0016C49.8295 63.4242 49.7496 63.8965 49.7496 64.4185C49.7496 64.9547 49.8312 65.4252 49.9946 65.8301C50.1579 66.2349 50.3994 66.5509 50.719 66.7782C51.0422 67.0055 51.4399 67.1191 51.9122 67.1191ZM59.3483 63.7047V68.5627H57.7556V60.3808H59.2844V61.7125H59.3856C59.5738 61.2793 59.8685 60.9313 60.2698 60.6685C60.6746 60.4057 61.1842 60.2743 61.7986 60.2743C62.3561 60.2743 62.8444 60.3915 63.2634 60.6259C63.6824 60.8567 64.0074 61.2011 64.2382 61.6592C64.469 62.1173 64.5844 62.6837 64.5844 63.3585V68.5627H62.9917V63.5502C62.9917 62.9572 62.8373 62.4938 62.5283 62.16C62.2194 61.8226 61.795 61.6539 61.2552 61.6539C60.8859 61.6539 60.5574 61.7338 60.2698 61.8936C59.9857 62.0534 59.7602 62.2878 59.5933 62.5967C59.43 62.9021 59.3483 63.2715 59.3483 63.7047ZM70.28 59.0705V57.6536H78.7228V59.0705H75.3191V68.5627H73.6784V59.0705H70.28ZM82.0534 63.7047V68.5627H80.4607V57.6536H82.0321V61.7125H82.1333C82.325 61.2722 82.618 60.9224 83.0122 60.6631C83.4063 60.4039 83.9213 60.2743 84.5569 60.2743C85.118 60.2743 85.608 60.3897 86.0271 60.6205C86.4497 60.8514 86.7764 61.1958 87.0072 61.6539C87.2416 62.1085 87.3588 62.6766 87.3588 63.3585V68.5627H85.7661V63.5502C85.7661 62.9501 85.6116 62.4849 85.3027 62.1546C84.9937 61.8208 84.564 61.6539 84.0136 61.6539C83.6372 61.6539 83.2998 61.7338 83.0015 61.8936C82.7068 62.0534 82.4742 62.2878 82.3037 62.5967C82.1368 62.9021 82.0534 63.2715 82.0534 63.7047ZM89.4841 68.5627V60.3808H91.0768V68.5627H89.4841ZM90.2884 59.1184C90.0115 59.1184 89.7735 59.0261 89.5747 58.8414C89.3794 58.6532 89.2817 58.4295 89.2817 58.1703C89.2817 57.9075 89.3794 57.6837 89.5747 57.4991C89.7735 57.3109 90.0115 57.2168 90.2884 57.2168C90.5654 57.2168 90.8016 57.3109 90.9969 57.4991C91.1958 57.6837 91.2952 57.9075 91.2952 58.1703C91.2952 58.4295 91.1958 58.6532 90.9969 58.8414C90.8016 59.0261 90.5654 59.1184 90.2884 59.1184ZM94.8121 63.7047V68.5627H93.2195V60.3808H94.7482V61.7125H94.8494C95.0376 61.2793 95.3324 60.9313 95.7337 60.6685C96.1385 60.4057 96.6481 60.2743 97.2624 60.2743C97.82 60.2743 98.3082 60.3915 98.7273 60.6259C99.1463 60.8567 99.4712 61.2011 99.7021 61.6592C99.9329 62.1173 100.048 62.6837 100.048 63.3585V68.5627H98.4556V63.5502C98.4556 62.9572 98.3011 62.4938 97.9922 62.16C97.6832 61.8226 97.2589 61.6539 96.7191 61.6539C96.3498 61.6539 96.0213 61.7338 95.7337 61.8936C95.4496 62.0534 95.2241 62.2878 95.0572 62.5967C94.8938 62.9021 94.8121 63.2715 94.8121 63.7047ZM103.649 65.7874L103.638 63.8432H103.915L107.175 60.3808H109.082L105.364 64.3226H105.114L103.649 65.7874ZM102.184 68.5627V57.6536H103.777V68.5627H102.184ZM107.351 68.5627L104.422 64.6742L105.519 63.5609L109.306 68.5627H107.351ZM110.534 68.5627V60.3808H112.127V68.5627H110.534ZM111.338 59.1184C111.061 59.1184 110.823 59.0261 110.624 58.8414C110.429 58.6532 110.332 58.4295 110.332 58.1703C110.332 57.9075 110.429 57.6837 110.624 57.4991C110.823 57.3109 111.061 57.2168 111.338 57.2168C111.615 57.2168 111.851 57.3109 112.047 57.4991C112.246 57.6837 112.345 57.9075 112.345 58.1703C112.345 58.4295 112.246 58.6532 112.047 58.8414C111.851 59.0261 111.615 59.1184 111.338 59.1184ZM115.862 63.7047V68.5627H114.269V60.3808H115.798V61.7125H115.899C116.087 61.2793 116.382 60.9313 116.783 60.6685C117.188 60.4057 117.698 60.2743 118.312 60.2743C118.87 60.2743 119.358 60.3915 119.777 60.6259C120.196 60.8567 120.521 61.2011 120.752 61.6592C120.983 62.1173 121.098 62.6837 121.098 63.3585V68.5627H119.505V63.5502C119.505 62.9572 119.351 62.4938 119.042 62.16C118.733 61.8226 118.309 61.6539 117.769 61.6539C117.4 61.6539 117.071 61.7338 116.783 61.8936C116.499 62.0534 116.274 62.2878 116.107 62.5967C115.944 62.9021 115.862 63.2715 115.862 63.7047ZM126.665 71.8013C126.015 71.8013 125.455 71.7161 124.987 71.5456C124.521 71.3752 124.141 71.1497 123.847 70.8691C123.552 70.5886 123.332 70.2814 123.186 69.9476L124.555 69.383C124.651 69.5392 124.779 69.7043 124.939 69.8783C125.102 70.0559 125.322 70.2068 125.599 70.3311C125.88 70.4554 126.24 70.5176 126.68 70.5176C127.284 70.5176 127.783 70.3702 128.177 70.0754C128.571 69.7842 128.769 69.319 128.769 68.6798V67.0712H128.667C128.571 67.2452 128.433 67.4387 128.252 67.6518C128.074 67.8649 127.829 68.0495 127.517 68.2058C127.204 68.362 126.798 68.4401 126.297 68.4401C125.651 68.4401 125.068 68.2892 124.55 67.9874C124.035 67.682 123.627 67.2328 123.325 66.6397C123.026 66.0431 122.877 65.3098 122.877 64.4398C122.877 63.5698 123.025 62.824 123.319 62.2026C123.618 61.5811 124.026 61.1053 124.544 60.775C125.063 60.4412 125.651 60.2743 126.308 60.2743C126.815 60.2743 127.226 60.3595 127.538 60.53C127.851 60.6969 128.094 60.8922 128.268 61.1159C128.445 61.3396 128.582 61.5367 128.678 61.7072H128.795V60.3808H130.356V68.7438C130.356 69.4469 130.193 70.0239 129.866 70.4749C129.539 70.9259 129.097 71.2597 128.54 71.4764C127.986 71.693 127.361 71.8013 126.665 71.8013ZM126.649 67.1191C127.107 67.1191 127.494 67.0126 127.81 66.7995C128.129 66.5829 128.371 66.2739 128.534 65.8727C128.701 65.4678 128.785 64.9831 128.785 64.4185C128.785 63.868 128.703 63.3833 128.54 62.9643C128.376 62.5453 128.136 62.2185 127.82 61.9842C127.504 61.7462 127.114 61.6273 126.649 61.6273C126.169 61.6273 125.77 61.7516 125.45 62.0002C125.13 62.2452 124.889 62.579 124.726 63.0016C124.566 63.4242 124.486 63.8965 124.486 64.4185C124.486 64.9547 124.568 65.4252 124.731 65.8301C124.894 66.2349 125.136 66.5509 125.455 66.7782C125.779 67.0055 126.176 67.1191 126.649 67.1191Z" fill="#797979"/>
<rect x="170.24" y="48.4689" width="114.938" height="30.1875" rx="15.0938" fill="white"/>
<rect x="170.24" y="48.4689" width="114.938" height="30.1875" rx="15.0938" stroke="#C9C9C9" stroke-width="0.9375"/>
<path d="M186.37 59.0705V57.6536H194.813V59.0705H191.409V68.5627H189.768V59.0705H186.37ZM198.89 68.7278C198.084 68.7278 197.39 68.5556 196.808 68.2111C196.229 67.8631 195.781 67.3748 195.465 66.7462C195.153 66.1141 194.996 65.3737 194.996 64.525C194.996 63.6869 195.153 62.9483 195.465 62.3091C195.781 61.6699 196.222 61.171 196.786 60.8123C197.354 60.4536 198.018 60.2743 198.778 60.2743C199.24 60.2743 199.688 60.3506 200.121 60.5033C200.554 60.656 200.943 60.8957 201.287 61.2225C201.632 61.5492 201.903 61.9735 202.102 62.4955C202.301 63.014 202.401 63.6443 202.401 64.3865V64.9511H195.897V63.758H200.84C200.84 63.3389 200.755 62.9678 200.584 62.6447C200.414 62.318 200.174 62.0605 199.865 61.8723C199.56 61.6841 199.201 61.59 198.789 61.59C198.342 61.59 197.951 61.7001 197.617 61.9203C197.287 62.1369 197.031 62.421 196.85 62.7725C196.673 63.1205 196.584 63.4987 196.584 63.9071V64.8393C196.584 65.3862 196.68 65.8514 196.871 66.2349C197.067 66.6184 197.338 66.9114 197.686 67.1138C198.034 67.3127 198.441 67.4121 198.906 67.4121C199.208 67.4121 199.483 67.3695 199.732 67.2842C199.98 67.1955 200.195 67.0641 200.376 66.8901C200.558 66.7161 200.696 66.5012 200.792 66.2455L202.299 66.5172C202.179 66.9611 201.962 67.3499 201.65 67.6837C201.341 68.014 200.952 68.2715 200.483 68.4561C200.018 68.6372 199.487 68.7278 198.89 68.7278ZM207.614 68.7278C206.822 68.7278 206.14 68.5484 205.569 68.1898C205 67.8276 204.564 67.3286 204.258 66.693C203.953 66.0573 203.8 65.3293 203.8 64.509C203.8 63.6781 203.956 62.9448 204.269 62.3091C204.581 61.6699 205.022 61.171 205.59 60.8123C206.158 60.4536 206.828 60.2743 207.598 60.2743C208.22 60.2743 208.774 60.3897 209.26 60.6205C209.747 60.8478 210.139 61.1674 210.437 61.5793C210.739 61.9913 210.918 62.4725 210.975 63.0229H209.425C209.34 62.6394 209.145 62.3091 208.839 62.0321C208.537 61.7551 208.133 61.6166 207.625 61.6166C207.181 61.6166 206.792 61.7338 206.458 61.9682C206.128 62.199 205.87 62.5293 205.686 62.959C205.501 63.3851 205.409 63.8894 205.409 64.4717C205.409 65.0683 205.499 65.5832 205.68 66.0165C205.862 66.4497 206.117 66.7853 206.448 67.0232C206.781 67.2612 207.174 67.3801 207.625 67.3801C207.927 67.3801 208.2 67.3251 208.445 67.215C208.694 67.1014 208.901 66.9398 209.068 66.7303C209.239 66.5207 209.358 66.2686 209.425 65.9739H210.975C210.918 66.503 210.746 66.9753 210.459 67.3908C210.171 67.8063 209.786 68.133 209.303 68.3709C208.823 68.6088 208.26 68.7278 207.614 68.7278ZM214.271 63.7047V68.5627H212.678V57.6536H214.25V61.7125H214.351C214.543 61.2722 214.836 60.9224 215.23 60.6631C215.624 60.4039 216.139 60.2743 216.775 60.2743C217.336 60.2743 217.826 60.3897 218.245 60.6205C218.667 60.8514 218.994 61.1958 219.225 61.6539C219.459 62.1085 219.577 62.6766 219.577 63.3585V68.5627H217.984V63.5502C217.984 62.9501 217.829 62.4849 217.52 62.1546C217.211 61.8208 216.782 61.6539 216.231 61.6539C215.855 61.6539 215.518 61.7338 215.219 61.8936C214.925 62.0534 214.692 62.2878 214.521 62.5967C214.355 62.9021 214.271 63.2715 214.271 63.7047ZM223.295 63.7047V68.5627H221.702V60.3808H223.231V61.7125H223.332C223.52 61.2793 223.815 60.9313 224.216 60.6685C224.621 60.4057 225.131 60.2743 225.745 60.2743C226.302 60.2743 226.791 60.3915 227.21 60.6259C227.629 60.8567 227.954 61.2011 228.184 61.6592C228.415 62.1173 228.531 62.6837 228.531 63.3585V68.5627H226.938V63.5502C226.938 62.9572 226.784 62.4938 226.475 62.16C226.166 61.8226 225.741 61.6539 225.202 61.6539C224.832 61.6539 224.504 61.7338 224.216 61.8936C223.932 62.0534 223.707 62.2878 223.54 62.5967C223.376 62.9021 223.295 63.2715 223.295 63.7047ZM234.113 68.7278C233.346 68.7278 232.677 68.552 232.105 68.2004C231.533 67.8489 231.089 67.357 230.773 66.7249C230.457 66.0928 230.299 65.3542 230.299 64.509C230.299 63.6603 230.457 62.9181 230.773 62.2825C231.089 61.6468 231.533 61.1532 232.105 60.8016C232.677 60.4501 233.346 60.2743 234.113 60.2743C234.88 60.2743 235.55 60.4501 236.121 60.8016C236.693 61.1532 237.137 61.6468 237.453 62.2825C237.769 62.9181 237.927 63.6603 237.927 64.509C237.927 65.3542 237.769 66.0928 237.453 66.7249C237.137 67.357 236.693 67.8489 236.121 68.2004C235.55 68.552 234.88 68.7278 234.113 68.7278ZM234.118 67.3908C234.616 67.3908 235.028 67.2594 235.354 66.9966C235.681 66.7338 235.922 66.384 236.079 65.9472C236.238 65.5105 236.318 65.0293 236.318 64.5037C236.318 63.9817 236.238 63.5023 236.079 63.0655C235.922 62.6252 235.681 62.2718 235.354 62.0055C235.028 61.7391 234.616 61.606 234.118 61.606C233.618 61.606 233.202 61.7391 232.872 62.0055C232.545 62.2718 232.302 62.6252 232.142 63.0655C231.986 63.5023 231.908 63.9817 231.908 64.5037C231.908 65.0293 231.986 65.5105 232.142 65.9472C232.302 66.384 232.545 66.7338 232.872 66.9966C233.202 67.2594 233.618 67.3908 234.118 67.3908ZM241.298 57.6536V68.5627H239.705V57.6536H241.298ZM246.887 68.7278C246.12 68.7278 245.45 68.552 244.878 68.2004C244.307 67.8489 243.863 67.357 243.547 66.7249C243.231 66.0928 243.073 65.3542 243.073 64.509C243.073 63.6603 243.231 62.9181 243.547 62.2825C243.863 61.6468 244.307 61.1532 244.878 60.8016C245.45 60.4501 246.12 60.2743 246.887 60.2743C247.654 60.2743 248.323 60.4501 248.895 60.8016C249.466 61.1532 249.91 61.6468 250.226 62.2825C250.542 62.9181 250.7 63.6603 250.7 64.509C250.7 65.3542 250.542 66.0928 250.226 66.7249C249.91 67.357 249.466 67.8489 248.895 68.2004C248.323 68.552 247.654 68.7278 246.887 68.7278ZM246.892 67.3908C247.389 67.3908 247.801 67.2594 248.128 66.9966C248.454 66.7338 248.696 66.384 248.852 65.9472C249.012 65.5105 249.092 65.0293 249.092 64.5037C249.092 63.9817 249.012 63.5023 248.852 63.0655C248.696 62.6252 248.454 62.2718 248.128 62.0055C247.801 61.7391 247.389 61.606 246.892 61.606C246.391 61.606 245.976 61.7391 245.645 62.0055C245.319 62.2718 245.075 62.6252 244.916 63.0655C244.759 63.5023 244.681 63.9817 244.681 64.5037C244.681 65.0293 244.759 65.5105 244.916 65.9472C245.075 66.384 245.319 66.7338 245.645 66.9966C245.976 67.2594 246.391 67.3908 246.892 67.3908ZM255.909 71.8013C255.259 71.8013 254.7 71.7161 254.231 71.5456C253.766 71.3752 253.386 71.1497 253.091 70.8691C252.796 70.5886 252.576 70.2814 252.43 69.9476L253.799 69.383C253.895 69.5392 254.023 69.7043 254.183 69.8783C254.346 70.0559 254.566 70.2068 254.843 70.3311C255.124 70.4554 255.484 70.5176 255.925 70.5176C256.528 70.5176 257.027 70.3702 257.421 70.0754C257.816 69.7842 258.013 69.319 258.013 68.6798V67.0712H257.912C257.816 67.2452 257.677 67.4387 257.496 67.6518C257.318 67.8649 257.073 68.0495 256.761 68.2058C256.448 68.362 256.042 68.4401 255.541 68.4401C254.895 68.4401 254.312 68.2892 253.794 67.9874C253.279 67.682 252.871 67.2328 252.569 66.6397C252.271 66.0431 252.121 65.3098 252.121 64.4398C252.121 63.5698 252.269 62.824 252.563 62.2026C252.862 61.5811 253.27 61.1053 253.789 60.775C254.307 60.4412 254.895 60.2743 255.552 60.2743C256.06 60.2743 256.47 60.3595 256.782 60.53C257.095 60.6969 257.338 60.8922 257.512 61.1159C257.69 61.3396 257.826 61.5367 257.922 61.7072H258.039V60.3808H259.6V68.7438C259.6 69.4469 259.437 70.0239 259.11 70.4749C258.783 70.9259 258.341 71.2597 257.784 71.4764C257.23 71.693 256.605 71.8013 255.909 71.8013ZM255.893 67.1191C256.351 67.1191 256.738 67.0126 257.054 66.7995C257.374 66.5829 257.615 66.2739 257.778 65.8727C257.945 65.4678 258.029 64.9831 258.029 64.4185C258.029 63.868 257.947 63.3833 257.784 62.9643C257.62 62.5453 257.381 62.2185 257.065 61.9842C256.749 61.7462 256.358 61.6273 255.893 61.6273C255.413 61.6273 255.014 61.7516 254.694 62.0002C254.375 62.2452 254.133 62.579 253.97 63.0016C253.81 63.4242 253.73 63.8965 253.73 64.4185C253.73 64.9547 253.812 65.4252 253.975 65.8301C254.138 66.2349 254.38 66.5509 254.7 66.7782C255.023 67.0055 255.42 67.1191 255.893 67.1191ZM262.743 71.6308C262.505 71.6308 262.288 71.6113 262.093 71.5722C261.898 71.5367 261.752 71.4977 261.656 71.4551L262.04 70.15C262.331 70.2281 262.59 70.2619 262.817 70.2512C263.045 70.2406 263.245 70.1553 263.419 69.9955C263.597 69.8357 263.753 69.5747 263.888 69.2125L264.085 68.6692L261.092 60.3808H262.796L264.868 66.7303H264.953L267.025 60.3808H268.735L265.364 69.6546C265.207 70.0808 265.008 70.4412 264.767 70.7359C264.525 71.0342 264.238 71.258 263.904 71.4071C263.57 71.5563 263.183 71.6308 262.743 71.6308Z" fill="#797979"/>
<rect x="308.052" y="48.4689" width="72.9375" height="30.1875" rx="15.0938" fill="white"/>
<rect x="308.052" y="48.4689" width="72.9375" height="30.1875" rx="15.0938" stroke="#C9C9C9" stroke-width="0.9375"/>
<path d="M326.855 68.5626L323.83 57.6535H325.561L327.686 66.1017H327.788L329.998 57.6535H331.713L333.924 66.107H334.025L336.145 57.6535H337.882L334.851 68.5626H333.194L330.898 60.3915H330.813L328.517 68.5626H326.855ZM341.975 68.7277C341.169 68.7277 340.475 68.5555 339.893 68.2111C339.314 67.863 338.866 67.3748 338.55 66.7462C338.238 66.1141 338.081 65.3737 338.081 64.525C338.081 63.6869 338.238 62.9483 338.55 62.3091C338.866 61.6699 339.307 61.1709 339.871 60.8123C340.439 60.4536 341.103 60.2743 341.863 60.2743C342.325 60.2743 342.773 60.3506 343.206 60.5033C343.639 60.656 344.028 60.8957 344.372 61.2224C344.717 61.5491 344.988 61.9735 345.187 62.4955C345.386 63.014 345.486 63.6443 345.486 64.3865V64.9511H338.982V63.7579H343.925C343.925 63.3389 343.84 62.9678 343.669 62.6447C343.499 62.3179 343.259 62.0605 342.95 61.8723C342.645 61.6841 342.286 61.59 341.874 61.59C341.427 61.59 341.036 61.7001 340.702 61.9202C340.372 62.1368 340.116 62.4209 339.935 62.7725C339.758 63.1205 339.669 63.4987 339.669 63.9071V64.8393C339.669 65.3861 339.765 65.8513 339.956 66.2349C340.152 66.6184 340.423 66.9113 340.771 67.1138C341.119 67.3126 341.526 67.4121 341.991 67.4121C342.293 67.4121 342.568 67.3694 342.817 67.2842C343.065 67.1954 343.28 67.064 343.461 66.89C343.643 66.716 343.781 66.5012 343.877 66.2455L345.384 66.5172C345.264 66.9611 345.047 67.3499 344.735 67.6837C344.426 68.014 344.037 68.2714 343.568 68.4561C343.103 68.6372 342.572 68.7277 341.975 68.7277ZM347.381 68.5626V57.6535H348.973V61.7072H349.069C349.161 61.5367 349.295 61.3396 349.469 61.1159C349.643 60.8922 349.884 60.6969 350.193 60.53C350.502 60.3595 350.91 60.2743 351.418 60.2743C352.079 60.2743 352.668 60.4412 353.187 60.775C353.705 61.1088 354.112 61.59 354.406 62.2185C354.705 62.8471 354.854 63.6035 354.854 64.4877C354.854 65.3719 354.707 66.1301 354.412 66.7622C354.117 67.3907 353.712 67.8755 353.197 68.2164C352.682 68.5537 352.095 68.7224 351.434 68.7224C350.937 68.7224 350.53 68.639 350.214 68.4721C349.902 68.3052 349.657 68.1099 349.479 67.8861C349.302 67.6624 349.165 67.4635 349.069 67.2895H348.936V68.5626H347.381ZM348.941 64.4717C348.941 65.047 349.025 65.5513 349.192 65.9845C349.359 66.4177 349.6 66.7569 349.916 67.0019C350.232 67.2434 350.619 67.3641 351.077 67.3641C351.553 67.3641 351.951 67.238 352.27 66.9859C352.59 66.7302 352.832 66.384 352.995 65.9472C353.162 65.5104 353.245 65.0186 353.245 64.4717C353.245 63.9319 353.164 63.4472 353 63.0175C352.84 62.5878 352.599 62.2487 352.276 62.0001C351.956 61.7515 351.557 61.6273 351.077 61.6273C350.616 61.6273 350.225 61.7462 349.905 61.9841C349.589 62.2221 349.35 62.5541 349.186 62.9802C349.023 63.4064 348.941 63.9035 348.941 64.4717ZM360.419 68.7118C359.687 68.7118 359.034 68.5857 358.459 68.3336C357.887 68.0814 357.434 67.7317 357.1 67.2842C356.77 66.8332 356.593 66.3112 356.568 65.7182H358.24C358.262 66.0413 358.37 66.3219 358.565 66.5598C358.764 66.7942 359.023 66.9753 359.343 67.1031C359.663 67.2309 360.018 67.2949 360.408 67.2949C360.838 67.2949 361.218 67.2203 361.548 67.0711C361.882 66.922 362.143 66.7143 362.331 66.4479C362.52 66.178 362.614 65.8673 362.614 65.5157C362.614 65.15 362.52 64.8286 362.331 64.5516C362.147 64.2711 361.875 64.0509 361.516 63.8911C361.161 63.7313 360.732 63.6514 360.227 63.6514H359.306V62.3091H360.227C360.632 62.3091 360.987 62.2363 361.293 62.0907C361.602 61.9451 361.843 61.7427 362.017 61.4834C362.191 61.2206 362.278 60.9135 362.278 60.5619C362.278 60.2246 362.202 59.9316 362.049 59.683C361.9 59.4309 361.687 59.2338 361.41 59.0917C361.136 58.9497 360.813 58.8787 360.44 58.8787C360.085 58.8787 359.753 58.9444 359.444 59.0758C359.139 59.2036 358.89 59.3883 358.698 59.6297C358.507 59.8677 358.404 60.1535 358.39 60.4873H356.797C356.815 59.8978 356.989 59.3794 357.319 58.9319C357.653 58.4845 358.093 58.1347 358.64 57.8826C359.187 57.6304 359.794 57.5044 360.462 57.5044C361.161 57.5044 361.765 57.6411 362.273 57.9145C362.784 58.1844 363.178 58.5449 363.455 58.9959C363.736 59.4469 363.874 59.9405 363.871 60.4767C363.874 61.0875 363.704 61.6059 363.359 62.0321C363.018 62.4582 362.564 62.7441 361.996 62.8897V62.9749C362.72 63.085 363.281 63.3726 363.679 63.8378C364.08 64.303 364.279 64.8801 364.276 65.569C364.279 66.1692 364.112 66.7072 363.775 67.183C363.441 67.6589 362.985 68.0335 362.406 68.3069C361.827 68.5768 361.165 68.7118 360.419 68.7118Z" fill="#797979"/>
<rect x="403.677" y="48.4689" width="127.938" height="30.1875" rx="15.0938" fill="white"/>
<rect x="403.677" y="48.4689" width="127.938" height="30.1875" rx="15.0938" stroke="#C9C9C9" stroke-width="0.9375"/>
<path d="M420.345 68.5626V57.6535H424.233C425.082 57.6535 425.785 57.808 426.343 58.117C426.9 58.4259 427.317 58.8485 427.594 59.3847C427.871 59.9174 428.01 60.5175 428.01 61.1851C428.01 61.8563 427.87 62.46 427.589 62.9962C427.312 63.5289 426.893 63.9515 426.332 64.264C425.774 64.5729 425.073 64.7274 424.228 64.7274H421.554V63.3318H424.079C424.615 63.3318 425.05 63.2395 425.384 63.0548C425.718 62.8666 425.963 62.6109 426.119 62.2878C426.275 61.9646 426.353 61.5971 426.353 61.1851C426.353 60.7732 426.275 60.4074 426.119 60.0878C425.963 59.7682 425.716 59.5179 425.378 59.3368C425.045 59.1557 424.604 59.0651 424.057 59.0651H421.991V68.5626H420.345ZM429.812 68.5626V60.3808H431.351V61.6805H431.436C431.585 61.2402 431.848 60.8939 432.225 60.6418C432.605 60.3861 433.034 60.2583 433.514 60.2583C433.613 60.2583 433.73 60.2618 433.865 60.2689C434.004 60.276 434.112 60.2849 434.19 60.2956V61.819C434.126 61.8013 434.013 61.7817 433.849 61.7604C433.686 61.7356 433.523 61.7231 433.359 61.7231C432.983 61.7231 432.647 61.803 432.352 61.9628C432.061 62.1191 431.83 62.3375 431.66 62.618C431.49 62.895 431.404 63.2111 431.404 63.5662V68.5626H429.812ZM438.722 68.7277C437.955 68.7277 437.285 68.552 436.714 68.2004C436.142 67.8488 435.698 67.357 435.382 66.7249C435.066 66.0928 434.908 65.3542 434.908 64.509C434.908 63.6603 435.066 62.9181 435.382 62.2824C435.698 61.6468 436.142 61.1532 436.714 60.8016C437.285 60.4501 437.955 60.2743 438.722 60.2743C439.489 60.2743 440.158 60.4501 440.73 60.8016C441.302 61.1532 441.746 61.6468 442.062 62.2824C442.378 62.9181 442.536 63.6603 442.536 64.509C442.536 65.3542 442.378 66.0928 442.062 66.7249C441.746 67.357 441.302 67.8488 440.73 68.2004C440.158 68.552 439.489 68.7277 438.722 68.7277ZM438.727 67.3907C439.224 67.3907 439.636 67.2594 439.963 66.9966C440.29 66.7338 440.531 66.384 440.687 65.9472C440.847 65.5104 440.927 65.0292 440.927 64.5037C440.927 63.9817 440.847 63.5023 440.687 63.0655C440.531 62.6251 440.29 62.2718 439.963 62.0054C439.636 61.7391 439.224 61.6059 438.727 61.6059C438.226 61.6059 437.811 61.7391 437.481 62.0054C437.154 62.2718 436.911 62.6251 436.751 63.0655C436.595 63.5023 436.517 63.9817 436.517 64.5037C436.517 65.0292 436.595 65.5104 436.751 65.9472C436.911 66.384 437.154 66.7338 437.481 66.9966C437.811 67.2594 438.226 67.3907 438.727 67.3907ZM447.744 71.8013C447.094 71.8013 446.535 71.716 446.066 71.5456C445.601 71.3751 445.221 71.1496 444.926 70.8691C444.631 70.5885 444.411 70.2814 444.266 69.9476L445.635 69.3829C445.73 69.5392 445.858 69.7043 446.018 69.8783C446.181 70.0559 446.402 70.2068 446.679 70.3311C446.959 70.4554 447.32 70.5175 447.76 70.5175C448.364 70.5175 448.863 70.3702 449.257 70.0754C449.651 69.7842 449.848 69.319 449.848 68.6798V67.0711H449.747C449.651 67.2452 449.512 67.4387 449.331 67.6518C449.154 67.8648 448.909 68.0495 448.596 68.2057C448.284 68.362 447.877 68.4401 447.376 68.4401C446.73 68.4401 446.148 68.2892 445.629 67.9873C445.114 67.6819 444.706 67.2327 444.404 66.6397C444.106 66.0431 443.957 65.3098 443.957 64.4398C443.957 63.5697 444.104 62.824 444.399 62.2025C444.697 61.5811 445.105 61.1052 445.624 60.775C446.142 60.4412 446.73 60.2743 447.387 60.2743C447.895 60.2743 448.305 60.3595 448.618 60.53C448.93 60.6969 449.173 60.8922 449.347 61.1159C449.525 61.3396 449.662 61.5367 449.757 61.7072H449.875V60.3808H451.435V68.7437C451.435 69.4469 451.272 70.0239 450.945 70.4749C450.619 70.9259 450.176 71.2597 449.619 71.4763C449.065 71.6929 448.44 71.8013 447.744 71.8013ZM447.728 67.1191C448.186 67.1191 448.573 67.0126 448.889 66.7995C449.209 66.5829 449.45 66.2739 449.614 65.8726C449.781 65.4678 449.864 64.9831 449.864 64.4184C449.864 63.868 449.782 63.3833 449.619 62.9643C449.456 62.5452 449.216 62.2185 448.9 61.9841C448.584 61.7462 448.193 61.6273 447.728 61.6273C447.249 61.6273 446.849 61.7515 446.529 62.0001C446.21 62.2451 445.968 62.579 445.805 63.0015C445.645 63.4241 445.565 63.8964 445.565 64.4184C445.565 64.9547 445.647 65.4252 445.81 65.83C445.974 66.2349 446.215 66.5509 446.535 66.7782C446.858 67.0054 447.256 67.1191 447.728 67.1191ZM453.571 68.5626V60.3808H455.111V61.6805H455.196C455.345 61.2402 455.608 60.8939 455.984 60.6418C456.364 60.3861 456.794 60.2583 457.273 60.2583C457.373 60.2583 457.49 60.2618 457.625 60.2689C457.763 60.276 457.872 60.2849 457.95 60.2956V61.819C457.886 61.8013 457.772 61.7817 457.609 61.7604C457.446 61.7356 457.282 61.7231 457.119 61.7231C456.743 61.7231 456.407 61.803 456.112 61.9628C455.821 62.1191 455.59 62.3375 455.42 62.618C455.249 62.895 455.164 63.2111 455.164 63.5662V68.5626H453.571ZM461.636 68.7437C461.118 68.7437 460.649 68.6478 460.23 68.4561C459.811 68.2608 459.479 67.9785 459.234 67.6091C458.992 67.2398 458.871 66.7871 458.871 66.2508C458.871 65.7892 458.96 65.4092 459.138 65.1109C459.315 64.8126 459.555 64.5765 459.857 64.4025C460.159 64.2285 460.496 64.0971 460.869 64.0083C461.242 63.9195 461.622 63.852 462.009 63.8059C462.499 63.7491 462.897 63.7029 463.202 63.6674C463.507 63.6283 463.729 63.5662 463.868 63.4809C464.006 63.3957 464.076 63.2572 464.076 63.0655V63.0282C464.076 62.563 463.944 62.2025 463.681 61.9469C463.422 61.6912 463.035 61.5633 462.52 61.5633C461.984 61.5633 461.561 61.6823 461.252 61.9202C460.947 62.1546 460.736 62.4156 460.619 62.7032L459.122 62.3623C459.299 61.8652 459.559 61.4639 459.899 61.1585C460.244 60.8496 460.64 60.6258 461.087 60.4873C461.535 60.3453 462.005 60.2743 462.499 60.2743C462.826 60.2743 463.172 60.3133 463.538 60.3915C463.907 60.466 464.251 60.6045 464.571 60.8069C464.894 61.0094 465.159 61.2988 465.365 61.6752C465.571 62.0481 465.674 62.5328 465.674 63.1294V68.5626H464.118V67.444H464.054C463.951 67.65 463.797 67.8524 463.591 68.0513C463.385 68.2501 463.12 68.4152 462.797 68.5466C462.474 68.678 462.087 68.7437 461.636 68.7437ZM461.982 67.4653C462.423 67.4653 462.799 67.3783 463.112 67.2043C463.428 67.0303 463.667 66.803 463.831 66.5225C463.998 66.2384 464.081 65.9348 464.081 65.6116V64.5569C464.024 64.6138 463.914 64.667 463.751 64.7167C463.591 64.7629 463.408 64.8037 463.202 64.8393C462.996 64.8712 462.795 64.9014 462.6 64.9298C462.405 64.9547 462.241 64.976 462.11 64.9937C461.801 65.0328 461.519 65.0985 461.263 65.1908C461.011 65.2831 460.809 65.4163 460.656 65.5903C460.507 65.7608 460.432 65.988 460.432 66.2721C460.432 66.6663 460.578 66.9646 460.869 67.167C461.16 67.3659 461.531 67.4653 461.982 67.4653ZM467.795 68.5626V60.3808H469.324V61.7125H469.425C469.595 61.2615 469.874 60.9099 470.261 60.6578C470.648 60.4021 471.112 60.2743 471.652 60.2743C472.198 60.2743 472.657 60.4021 473.026 60.6578C473.399 60.9135 473.674 61.265 473.851 61.7125H473.937C474.132 61.2757 474.443 60.9277 474.869 60.6684C475.295 60.4057 475.803 60.2743 476.392 60.2743C477.134 60.2743 477.74 60.5069 478.209 60.9721C478.681 61.4373 478.917 62.1386 478.917 63.0761V68.5626H477.324V63.2253C477.324 62.6713 477.174 62.27 476.872 62.0214C476.57 61.7728 476.209 61.6486 475.79 61.6486C475.272 61.6486 474.869 61.8084 474.581 62.128C474.294 62.444 474.15 62.8506 474.15 63.3478V68.5626H472.562V63.1241C472.562 62.6802 472.424 62.3233 472.147 62.0534C471.87 61.7835 471.509 61.6486 471.066 61.6486C470.764 61.6486 470.485 61.7285 470.229 61.8883C469.977 62.0445 469.773 62.2629 469.617 62.5434C469.464 62.824 469.388 63.1489 469.388 63.5182V68.5626H467.795ZM481.052 68.5626V60.3808H482.581V61.7125H482.682C482.852 61.2615 483.131 60.9099 483.518 60.6578C483.905 60.4021 484.369 60.2743 484.908 60.2743C485.455 60.2743 485.913 60.4021 486.283 60.6578C486.656 60.9135 486.931 61.265 487.108 61.7125H487.194C487.389 61.2757 487.7 60.9277 488.126 60.6684C488.552 60.4057 489.06 60.2743 489.649 60.2743C490.391 60.2743 490.997 60.5069 491.466 60.9721C491.938 61.4373 492.174 62.1386 492.174 63.0761V68.5626H490.581V63.2253C490.581 62.6713 490.43 62.27 490.129 62.0214C489.827 61.7728 489.466 61.6486 489.047 61.6486C488.529 61.6486 488.126 61.8084 487.838 62.128C487.55 62.444 487.407 62.8506 487.407 63.3478V68.5626H485.819V63.1241C485.819 62.6802 485.681 62.3233 485.404 62.0534C485.127 61.7835 484.766 61.6486 484.322 61.6486C484.021 61.6486 483.742 61.7285 483.486 61.8883C483.234 62.0445 483.03 62.2629 482.874 62.5434C482.721 62.824 482.645 63.1489 482.645 63.5182V68.5626H481.052ZM494.309 68.5626V60.3808H495.901V68.5626H494.309ZM495.113 59.1184C494.836 59.1184 494.598 59.026 494.399 58.8414C494.204 58.6532 494.106 58.4295 494.106 58.1702C494.106 57.9074 494.204 57.6837 494.399 57.4991C494.598 57.3108 494.836 57.2167 495.113 57.2167C495.39 57.2167 495.626 57.3108 495.821 57.4991C496.02 57.6837 496.12 57.9074 496.12 58.1702C496.12 58.4295 496.02 58.6532 495.821 58.8414C495.626 59.026 495.39 59.1184 495.113 59.1184ZM499.637 63.7047V68.5626H498.044V60.3808H499.573V61.7125H499.674C499.862 61.2792 500.157 60.9312 500.558 60.6684C500.963 60.4057 501.473 60.2743 502.087 60.2743C502.645 60.2743 503.133 60.3915 503.552 60.6258C503.971 60.8567 504.296 61.2011 504.527 61.6592C504.757 62.1173 504.873 62.6837 504.873 63.3584V68.5626H503.28V63.5502C503.28 62.9572 503.126 62.4937 502.817 62.1599C502.508 61.8226 502.083 61.6539 501.544 61.6539C501.174 61.6539 500.846 61.7338 500.558 61.8936C500.274 62.0534 500.049 62.2878 499.882 62.5967C499.718 62.9021 499.637 63.2714 499.637 63.7047ZM510.439 71.8013C509.789 71.8013 509.23 71.716 508.761 71.5456C508.296 71.3751 507.916 71.1496 507.621 70.8691C507.327 70.5885 507.107 70.2814 506.961 69.9476L508.33 69.3829C508.426 69.5392 508.554 69.7043 508.713 69.8783C508.877 70.0559 509.097 70.2068 509.374 70.3311C509.654 70.4554 510.015 70.5175 510.455 70.5175C511.059 70.5175 511.558 70.3702 511.952 70.0754C512.346 69.7842 512.543 69.319 512.543 68.6798V67.0711H512.442C512.346 67.2452 512.208 67.4387 512.027 67.6518C511.849 67.8648 511.604 68.0495 511.292 68.2057C510.979 68.362 510.572 68.4401 510.072 68.4401C509.425 68.4401 508.843 68.2892 508.325 67.9873C507.81 67.6819 507.401 67.2327 507.099 66.6397C506.801 66.0431 506.652 65.3098 506.652 64.4398C506.652 63.5697 506.799 62.824 507.094 62.2025C507.392 61.5811 507.801 61.1052 508.319 60.775C508.838 60.4412 509.425 60.2743 510.082 60.2743C510.59 60.2743 511 60.3595 511.313 60.53C511.625 60.6969 511.869 60.8922 512.043 61.1159C512.22 61.3396 512.357 61.5367 512.453 61.7072H512.57V60.3808H514.131V68.7437C514.131 69.4469 513.967 70.0239 513.641 70.4749C513.314 70.9259 512.872 71.2597 512.314 71.4763C511.76 71.6929 511.135 71.8013 510.439 71.8013ZM510.423 67.1191C510.881 67.1191 511.268 67.0126 511.585 66.7995C511.904 66.5829 512.146 66.2739 512.309 65.8726C512.476 65.4678 512.559 64.9831 512.559 64.4184C512.559 63.868 512.478 63.3833 512.314 62.9643C512.151 62.5452 511.911 62.2185 511.595 61.9841C511.279 61.7462 510.888 61.6273 510.423 61.6273C509.944 61.6273 509.544 61.7515 509.225 62.0001C508.905 62.2451 508.664 62.579 508.5 63.0015C508.341 63.4241 508.261 63.8964 508.261 64.4184C508.261 64.9547 508.342 65.4252 508.506 65.83C508.669 66.2349 508.911 66.5509 509.23 66.7782C509.553 67.0054 509.951 67.1191 510.423 67.1191Z" fill="#797979"/>
<rect x="553.677" y="48.4689" width="45.9375" height="30.1875" rx="15.0938" fill="white"/>
<rect x="553.677" y="48.4689" width="45.9375" height="30.1875" rx="15.0938" stroke="#C9C9C9" stroke-width="0.9375"/>
<path d="M571.266 68.5626H569.518L573.444 57.6535H575.346L579.272 68.5626H577.524L574.44 59.6351H574.355L571.266 68.5626ZM571.559 64.2906H577.226V65.6755H571.559V64.2906ZM582.493 57.6535V68.5626H580.847V57.6535H582.493Z" fill="#797979"/>
</svg>
