<svg width="161" height="47" viewBox="0 0 161 47" fill="none" xmlns="http://www.w3.org/2000/svg">
<rect x="0.749756" y="0.625" width="159.375" height="45.9375" rx="5.39189" fill="#1C5CFF"/>
<rect x="126.4" y="10.0355" width="24.6486" height="24.6486" rx="2.31081" fill="#3D74FF"/>
<path d="M35.3841 20.3248C35.2953 20.0371 35.1728 19.7797 35.0166 19.5524C34.8639 19.3216 34.6792 19.1245 34.4626 18.9611C34.2495 18.7978 34.0045 18.6753 33.7275 18.5936C33.4505 18.5083 33.1487 18.4657 32.822 18.4657C32.236 18.4657 31.714 18.6131 31.2559 18.9079C30.7978 19.2026 30.4374 19.6358 30.1746 20.2076C29.9154 20.7758 29.7857 21.4682 29.7857 22.285C29.7857 23.1088 29.9154 23.8066 30.1746 24.3784C30.4338 24.9501 30.7943 25.3851 31.2559 25.6834C31.7176 25.9782 32.2538 26.1255 32.8646 26.1255C33.4186 26.1255 33.898 26.019 34.3028 25.8059C34.7112 25.5929 35.0254 25.291 35.2456 24.9004C35.4658 24.5062 35.5759 24.0446 35.5759 23.5155L36.0233 23.5847H33.0617V22.04H37.4882V23.3503C37.4882 24.2843 37.2893 25.0922 36.8916 25.774C36.4938 26.4558 35.947 26.9814 35.2509 27.3507C34.5549 27.7164 33.7559 27.8993 32.8539 27.8993C31.849 27.8993 30.9665 27.6738 30.2066 27.2228C29.4502 26.7683 28.8589 26.1238 28.4328 25.2892C28.0102 24.4512 27.7989 23.4569 27.7989 22.3063C27.7989 21.4256 27.9232 20.639 28.1718 19.9466C28.4239 19.2541 28.7754 18.6664 29.2264 18.1834C29.6774 17.6969 30.2066 17.3276 30.8138 17.0755C31.421 16.8198 32.0816 16.6919 32.7953 16.6919C33.399 16.6919 33.9619 16.7807 34.4839 16.9583C35.0059 17.1323 35.4693 17.3809 35.8742 17.704C36.2825 18.0272 36.6181 18.4107 36.8809 18.8546C37.1437 19.2985 37.3159 19.7885 37.3976 20.3248H35.3841ZM42.936 27.91C42.1157 27.91 41.4073 27.7395 40.8107 27.3986C40.2177 27.0542 39.7613 26.5677 39.4417 25.9391C39.1221 25.307 38.9623 24.563 38.9623 23.7072C38.9623 22.8656 39.1221 22.127 39.4417 21.4913C39.7649 20.8521 40.2159 20.3549 40.7947 19.9998C41.3735 19.6412 42.0536 19.4618 42.8348 19.4618C43.3391 19.4618 43.815 19.5435 44.2624 19.7069C44.7134 19.8667 45.1111 20.1152 45.4556 20.4526C45.8036 20.79 46.077 21.2196 46.2759 21.7417C46.4748 22.2601 46.5742 22.878 46.5742 23.5954V24.1866H39.8679V22.8869H44.7258C44.7223 22.5176 44.6424 22.1891 44.4861 21.9015C44.3299 21.6103 44.1115 21.3812 43.8309 21.2143C43.5539 21.0474 43.2308 20.964 42.8615 20.964C42.4673 20.964 42.1211 21.0598 41.8228 21.2516C41.5245 21.4398 41.2919 21.6884 41.125 21.9973C40.9616 22.3027 40.8782 22.6383 40.8746 23.0041V24.1387C40.8746 24.6145 40.9616 25.0229 41.1356 25.3638C41.3096 25.7012 41.5529 25.9604 41.8654 26.1415C42.1779 26.3191 42.5436 26.4079 42.9627 26.4079C43.2432 26.4079 43.4971 26.3688 43.7244 26.2907C43.9517 26.209 44.1488 26.09 44.3157 25.9338C44.4826 25.7775 44.6086 25.584 44.6939 25.3532L46.4943 25.5556C46.3807 26.0314 46.164 26.4469 45.8444 26.802C45.5284 27.1536 45.1235 27.427 44.6299 27.6223C44.1363 27.8141 43.5717 27.91 42.936 27.91ZM52.2911 19.5684V21.0598H47.5876V19.5684H52.2911ZM48.7488 17.6081H50.6771V25.2892C50.6771 25.5485 50.7161 25.7473 50.7943 25.8858C50.8759 26.0208 50.9825 26.1131 51.1139 26.1628C51.2453 26.2125 51.3909 26.2374 51.5507 26.2374C51.6714 26.2374 51.7815 26.2285 51.8809 26.2108C51.9839 26.193 52.062 26.177 52.1153 26.1628L52.4402 27.6703C52.3372 27.7058 52.1899 27.7449 51.9981 27.7875C51.8099 27.8301 51.5791 27.8549 51.3056 27.862C50.8227 27.8762 50.3877 27.8035 50.0006 27.6436C49.6135 27.4803 49.3063 27.2282 49.0791 26.8873C48.8554 26.5463 48.7453 26.1202 48.7488 25.6088V17.6081ZM63.6383 19.84C63.5886 19.3748 63.3791 19.0126 63.0097 18.7534C62.644 18.4941 62.1681 18.3645 61.5822 18.3645C61.1702 18.3645 60.8169 18.4267 60.5222 18.551C60.2274 18.6753 60.0019 18.8439 59.8457 19.057C59.6894 19.2701 59.6095 19.5133 59.606 19.7868C59.606 20.014 59.6575 20.2111 59.7604 20.378C59.867 20.5449 60.0108 20.687 60.1919 20.8042C60.373 20.9178 60.5737 21.0137 60.7938 21.0918C61.014 21.1699 61.2359 21.2356 61.4597 21.2889L62.4824 21.5446C62.8943 21.6405 63.2903 21.7701 63.6702 21.9334C64.0538 22.0968 64.3965 22.3027 64.6983 22.5513C65.0037 22.7999 65.2452 23.1 65.4227 23.4515C65.6003 23.8031 65.6891 24.215 65.6891 24.6873C65.6891 25.3265 65.5257 25.8894 65.199 26.3759C64.8723 26.8588 64.4 27.237 63.7821 27.5105C63.1678 27.7804 62.4238 27.9153 61.5502 27.9153C60.7015 27.9153 59.9646 27.7839 59.3396 27.5211C58.7182 27.2584 58.2317 26.8748 57.8801 26.3706C57.5321 25.8663 57.3439 25.252 57.3155 24.5275H59.2597C59.2881 24.9075 59.4053 25.2235 59.6113 25.4757C59.8173 25.7278 60.0854 25.916 60.4156 26.0403C60.7494 26.1646 61.1223 26.2267 61.5342 26.2267C61.9639 26.2267 62.3403 26.1628 62.6635 26.035C62.9902 25.9036 63.2459 25.7225 63.4305 25.4917C63.6152 25.2573 63.7093 24.9838 63.7129 24.6713C63.7093 24.3873 63.6259 24.1529 63.4625 23.9682C63.2992 23.78 63.0701 23.6238 62.7754 23.4995C62.4842 23.3716 62.1433 23.258 61.7526 23.1586L60.5115 22.839C59.6131 22.6081 58.9028 22.2584 58.3808 21.7896C57.8624 21.3173 57.6031 20.6905 57.6031 19.9093C57.6031 19.2665 57.7771 18.7037 58.1251 18.2207C58.4767 17.7378 58.9543 17.3631 59.558 17.0968C60.1617 16.8269 60.8453 16.6919 61.6088 16.6919C62.383 16.6919 63.0612 16.8269 63.6436 17.0968C64.2296 17.3631 64.6894 17.7342 65.0232 18.2101C65.357 18.6824 65.5293 19.2257 65.5399 19.84H63.6383ZM71.4512 19.5684V21.0598H66.7478V19.5684H71.4512ZM67.909 17.6081H69.8372V25.2892C69.8372 25.5485 69.8763 25.7473 69.9544 25.8858C70.0361 26.0208 70.1426 26.1131 70.274 26.1628C70.4054 26.2125 70.551 26.2374 70.7108 26.2374C70.8316 26.2374 70.9416 26.2285 71.0411 26.2108C71.1441 26.193 71.2222 26.177 71.2755 26.1628L71.6004 27.6703C71.4974 27.7058 71.35 27.7449 71.1583 27.7875C70.9701 27.8301 70.7392 27.8549 70.4658 27.862C69.9828 27.8762 69.5478 27.8035 69.1607 27.6436C68.7737 27.4803 68.4665 27.2282 68.2392 26.8873C68.0155 26.5463 67.9054 26.1202 67.909 25.6088V17.6081ZM75.4183 27.9153C74.8998 27.9153 74.4329 27.823 74.0174 27.6383C73.6054 27.4501 73.2787 27.1731 73.0373 26.8074C72.7993 26.4416 72.6804 25.9906 72.6804 25.4544C72.6804 24.9927 72.7656 24.611 72.9361 24.3091C73.1065 24.0073 73.3391 23.7658 73.6339 23.5847C73.9286 23.4036 74.2606 23.2669 74.6299 23.1745C75.0028 23.0787 75.3881 23.0094 75.7858 22.9668C76.2652 22.9171 76.6541 22.8727 76.9524 22.8336C77.2507 22.791 77.4673 22.7271 77.6022 22.6419C77.7407 22.5531 77.81 22.4164 77.81 22.2317V22.1998C77.81 21.7985 77.691 21.4878 77.4531 21.2676C77.2152 21.0474 76.8725 20.9373 76.425 20.9373C75.9527 20.9373 75.5781 21.0403 75.3011 21.2463C75.0277 21.4522 74.843 21.6955 74.7471 21.976L72.9467 21.7204C73.0888 21.2232 73.3231 20.8077 73.6498 20.4739C73.9765 20.1365 74.376 19.8844 74.8483 19.7175C75.3206 19.5471 75.8427 19.4618 76.4144 19.4618C76.8086 19.4618 77.201 19.508 77.5916 19.6003C77.9822 19.6927 78.3391 19.8454 78.6623 20.0584C78.9854 20.2679 79.2446 20.5538 79.44 20.916C79.6388 21.2782 79.7383 21.731 79.7383 22.2743V27.7502H77.8846V26.6262H77.8206C77.7035 26.8535 77.5383 27.0666 77.3253 27.2655C77.1157 27.4608 76.8512 27.6188 76.5316 27.7395C76.2155 27.8567 75.8444 27.9153 75.4183 27.9153ZM75.919 26.4984C76.3061 26.4984 76.6417 26.4221 76.9258 26.2694C77.2098 26.1131 77.4282 25.9071 77.5809 25.6515C77.7372 25.3958 77.8153 25.117 77.8153 24.8152V23.851C77.7549 23.9008 77.652 23.9469 77.5064 23.9895C77.3643 24.0321 77.2045 24.0694 77.027 24.1014C76.8494 24.1334 76.6736 24.1618 76.4996 24.1866C76.3256 24.2115 76.1747 24.2328 76.0468 24.2505C75.7592 24.2896 75.5018 24.3535 75.2745 24.4423C75.0472 24.5311 74.8679 24.6554 74.7365 24.8152C74.6051 24.9714 74.5394 25.1738 74.5394 25.4224C74.5394 25.7775 74.669 26.0456 74.9282 26.2267C75.1875 26.4079 75.5177 26.4984 75.919 26.4984ZM81.6772 27.7502V19.5684H83.5468V20.932H83.6321C83.7812 20.4597 84.0369 20.0957 84.3991 19.84C84.7649 19.5808 85.1821 19.4512 85.6509 19.4512C85.7574 19.4512 85.8764 19.4565 86.0078 19.4672C86.1427 19.4743 86.2546 19.4867 86.3434 19.5044V21.2782C86.2617 21.2498 86.1321 21.225 85.9545 21.2037C85.7805 21.1788 85.6118 21.1664 85.4485 21.1664C85.0969 21.1664 84.7809 21.2427 84.5003 21.3954C84.2233 21.5446 84.0049 21.7523 83.8451 22.0186C83.6853 22.285 83.6054 22.5922 83.6054 22.9402V27.7502H81.6772ZM92.1495 19.5684V21.0598H87.446V19.5684H92.1495ZM88.6072 17.6081H90.5355V25.2892C90.5355 25.5485 90.5745 25.7473 90.6527 25.8858C90.7343 26.0208 90.8409 26.1131 90.9723 26.1628C91.1037 26.2125 91.2493 26.2374 91.4091 26.2374C91.5298 26.2374 91.6399 26.2285 91.7393 26.2108C91.8423 26.193 91.9204 26.177 91.9737 26.1628L92.2986 27.6703C92.1956 27.7058 92.0483 27.7449 91.8565 27.7875C91.6683 27.8301 91.4375 27.8549 91.164 27.862C90.6811 27.8762 90.2461 27.8035 89.859 27.6436C89.4719 27.4803 89.1647 27.2282 88.9375 26.8873C88.7138 26.5463 88.6037 26.1202 88.6072 25.6088V17.6081ZM97.2964 27.91C96.4761 27.91 95.7676 27.7395 95.1711 27.3986C94.578 27.0542 94.1217 26.5677 93.8021 25.9391C93.4825 25.307 93.3227 24.563 93.3227 23.7072C93.3227 22.8656 93.4825 22.127 93.8021 21.4913C94.1252 20.8521 94.5762 20.3549 95.1551 19.9998C95.7339 19.6412 96.4139 19.4618 97.1952 19.4618C97.6995 19.4618 98.1753 19.5435 98.6228 19.7069C99.0738 19.8667 99.4715 20.1152 99.8159 20.4526C100.164 20.79 100.437 21.2196 100.636 21.7417C100.835 22.2601 100.935 22.878 100.935 23.5954V24.1866H94.2282V22.8869H99.0862C99.0826 22.5176 99.0027 22.1891 98.8465 21.9015C98.6902 21.6103 98.4718 21.3812 98.1913 21.2143C97.9143 21.0474 97.5912 20.964 97.2218 20.964C96.8277 20.964 96.4814 21.0598 96.1831 21.2516C95.8848 21.4398 95.6522 21.6884 95.4853 21.9973C95.322 22.3027 95.2385 22.6383 95.235 23.0041V24.1387C95.235 24.6145 95.322 25.0229 95.496 25.3638C95.67 25.7012 95.9132 25.9604 96.2257 26.1415C96.5382 26.3191 96.904 26.4079 97.323 26.4079C97.6036 26.4079 97.8575 26.3688 98.0848 26.2907C98.312 26.209 98.5091 26.09 98.676 25.9338C98.8429 25.7775 98.969 25.584 99.0542 25.3532L100.855 25.5556C100.741 26.0314 100.524 26.4469 100.205 26.802C99.8887 27.1536 99.4839 27.427 98.9903 27.6223C98.4967 27.8141 97.9321 27.91 97.2964 27.91ZM105.602 27.894C104.959 27.894 104.384 27.7289 103.876 27.3986C103.368 27.0684 102.967 26.589 102.672 25.9604C102.378 25.3319 102.23 24.5684 102.23 23.6699C102.23 22.7608 102.379 21.9938 102.678 21.3688C102.98 20.7402 103.386 20.2662 103.898 19.9466C104.409 19.6234 104.979 19.4618 105.607 19.4618C106.087 19.4618 106.481 19.5435 106.79 19.7069C107.099 19.8667 107.344 20.0602 107.525 20.2875C107.706 20.5112 107.846 20.7225 107.946 20.9213H108.026V16.8411H109.959V27.7502H108.063V26.4611H107.946C107.846 26.66 107.703 26.8713 107.514 27.095C107.326 27.3152 107.078 27.5034 106.769 27.6596C106.46 27.8159 106.071 27.894 105.602 27.894ZM106.14 26.312C106.548 26.312 106.896 26.2019 107.184 25.9817C107.472 25.758 107.69 25.4473 107.839 25.0495C107.988 24.6518 108.063 24.1884 108.063 23.6593C108.063 23.1302 107.988 22.6703 107.839 22.2797C107.694 21.889 107.477 21.5854 107.189 21.3688C106.905 21.1522 106.556 21.0439 106.14 21.0439C105.71 21.0439 105.352 21.1557 105.064 21.3794C104.776 21.6032 104.56 21.9121 104.414 22.3063C104.269 22.7005 104.196 23.1515 104.196 23.6593C104.196 24.1706 104.269 24.627 104.414 25.0282C104.563 25.426 104.782 25.7402 105.069 25.9711C105.361 26.1983 105.717 26.312 106.14 26.312Z" fill="white"/>
<path d="M138.725 16.1976L137.639 17.2837L141.937 21.5895L132.563 21.5895L132.563 23.13L141.937 23.13L137.631 27.4281L138.725 28.5219L144.887 22.3597L138.725 16.1976Z" fill="white"/>
</svg>
