<svg width="18" height="18" viewBox="0 0 18 18" fill="none" xmlns="http://www.w3.org/2000/svg">
<path d="M13.6625 12.0342L16.6825 15.0534L15.6848 16.0511L12.6655 13.0312C11.5421 13.9317 10.1448 14.4216 8.70497 14.4195C5.20203 14.4195 2.35907 11.5766 2.35907 8.07362C2.35907 4.57069 5.20203 1.72772 8.70497 1.72772C12.2079 1.72772 15.0509 4.57069 15.0509 8.07362C15.0529 9.51344 14.5631 10.9108 13.6625 12.0342ZM12.2481 11.511C13.1429 10.5907 13.6427 9.35721 13.6407 8.07362C13.6407 5.347 11.4316 3.13792 8.70497 3.13792C5.97835 3.13792 3.76927 5.347 3.76927 8.07362C3.76927 10.8002 5.97835 13.0093 8.70497 13.0093C9.98855 13.0113 11.2221 12.5116 12.1423 11.6167L12.2481 11.511Z" fill="#888888"/>
</svg>
